<svg width="20" height="20" viewBox="0 0 20 20" fill="none" xmlns="http://www.w3.org/2000/svg">
<g clip-path="url(#clip0_3_616)">
<path d="M1.1313 7.11625V15.8717C1.1313 17.5288 2.47138 18.8689 4.12821 18.8689H15.8718C17.5288 18.8689 18.8688 17.5288 18.8688 15.8717V7.14689C16.3341 7.80954 13.3076 8.19451 10.0581 8.19451C6.75783 8.19451 3.68902 7.79762 1.1313 7.11625ZM0.00270893 3.4496C0.000915996 3.49627 1.28569e-05 3.54297 0 3.58968L0 16.4104C0 18.389 1.61097 20.0001 3.58997 20.0001H16.4102C18.3891 20.0001 20 18.389 20 16.4104V3.58968C20 3.56554 19.9998 3.54126 19.9993 3.51722V6.8228C19.8485 6.86999 19.6957 6.91624 19.5408 6.96135V16.1159C19.5408 18.0041 18.0039 19.541 16.1157 19.541H3.88421C1.99613 19.541 0.459138 18.0041 0.459138 16.1159V6.92722C0.304188 6.88122 0.151306 6.83413 0.000689545 6.78606V3.56953C0.000738798 3.52944 0.00137909 3.4894 0.00270893 3.4496Z" fill="#930E12"/>
<path d="M1.13139 4.12387C1.13139 2.47128 2.47147 1.12706 4.1283 1.12706H15.8719C17.5289 1.12706 18.8689 2.47128 18.8689 4.12387V15.8718C18.8689 17.5288 17.5289 18.8689 15.8719 18.8689H4.12825C2.47142 18.8689 1.13134 17.5288 1.13134 15.8718L1.13139 4.12387ZM0.459229 3.88411V16.1159C0.459229 18.0041 1.99622 19.541 3.8843 19.541H16.1159C18.004 19.541 19.5409 18.0041 19.5409 16.1159V3.88411C19.5409 1.99613 18.004 0.459137 16.1159 0.459137H3.8843C1.99622 0.459137 0.459229 1.99613 0.459229 3.88411Z" fill="#930E12"/>
<path d="M16.5742 4.57764e-05H3.38776C3.2991 4.57764e-05 3.21153 0.00452782 3.1245 0.011177C1.40379 0.235575 0.0610013 1.68298 0.00268555 3.44964C0.0765161 1.53551 1.65784 4.57764e-05 3.58989 4.57764e-05H16.4102C18.3649 4.57764e-05 19.9606 1.57181 19.9992 3.51727V3.51032C19.9703 1.7473 18.6638 0.288325 16.9669 0.0231948C16.8379 0.00841882 16.7071 4.57764e-05 16.5742 4.57764e-05" fill="#930E12"/>
<path d="M15.872 1.12706H4.12839C2.47157 1.12706 1.13149 2.47128 1.13149 4.12387V7.11625C3.6892 7.79762 6.75797 8.1945 10.0582 8.1945C13.3077 8.1945 16.3342 7.80953 18.8689 7.14688V4.12392C18.8689 2.47132 17.5289 1.12706 15.872 1.12706ZM16.4104 4.57764e-05H3.59016C1.6581 4.57764e-05 0.0767772 1.53551 0.00294669 3.44964C0.00166611 3.48944 0.000976562 3.52948 0.000976562 3.56957V6.78605C0.153296 6.8347 0.306121 6.88176 0.459425 6.92721V3.88415C0.459425 1.99618 1.99642 0.459184 3.88449 0.459184H16.1161C18.0042 0.459184 19.5411 1.99618 19.5411 3.88415V6.96139C19.6944 6.91676 19.8472 6.87058 19.9996 6.82284V3.51727C19.9608 1.57181 18.3652 4.57764e-05 16.4104 4.57764e-05Z" fill="#930E12"/>
<path d="M16.1159 0.459137H3.8843C1.99622 0.459137 0.459229 1.99613 0.459229 3.88411V6.92717C0.682366 6.99333 0.906425 7.05635 1.13134 7.1162V4.12387C1.13134 2.47128 2.47142 1.12706 4.12825 1.12706H15.8719C17.5288 1.12706 18.8688 2.47128 18.8688 4.12387V7.14693C19.0937 7.08821 19.3178 7.02635 19.541 6.9614V3.88411C19.5409 1.99613 18.004 0.459137 16.1159 0.459137Z" fill="#930E12"/>
<path d="M11.9926 5H10.2944C9.28669 5 8.16581 5.43878 8.16581 6.95102C8.17073 7.47795 8.16581 7.98259 8.16581 8.55052H7V10.4711H8.20188V16H10.4104V10.4346H11.8681L12 8.54514H10.3724C10.3724 8.54514 10.376 7.70463 10.3724 7.46054C10.3724 6.86293 10.973 6.89716 11.0091 6.89716C11.295 6.89716 11.8507 6.89802 11.9934 6.89716V5H11.9926Z" fill="white"/>
</g>
<defs>
<clipPath id="clip0_3_616">
<rect width="20" height="20" rx="5" fill="white"/>
</clipPath>
</defs>
</svg>
